# xmcd
# Track frame offsets:
# 150
# 12137
# 21824
# 33337
# 44693
# 56668
# 65438
# 78003
# 89763
# 100855
# 113655
# 124735
# 139408
# 150817
# 159597
#
# Disc length: 2302 seconds
# Revision: 0
# Processed by: cddbd v1.5.1PL0 Copyright (c) Steve Scherf et al.
# Submitted via: VisiTrax 2.9.10.228 - For more info visit www.synapsa.com
#
DISCID=b908fc0f
DTITLE=Patsy Cline - Patsy Cline Collection
DYEAR=1900
DGENRE=Country
TTITLE0=Walkin' After Midnight
TTITLE1=Love Me, Love Me, Honey Do
TTITLE2=Just Out Of Reach
TTITLE3=Don't Ever Leave Me Again
TTITLE4=If I Could Only Stay Asleep
TTITLE5=Come On In
TTITLE6=Poor Man's Roses
TTITLE7=I've Loved And Lost Again
TTITLE8=There He Goes
TTITLE9=Just A Closer Walk With Thee
TTITLE10=That's How Much I Love You
TTITLE11=Then You'll Know
TTITLE12=Stop The World And Let Me Off
TTITLE13=Crazy Dreams
TTITLE14=Pick Me Up On Your Way Down
EXTD=
EXTT0=
EXTT1=
EXTT2=
EXTT3=
EXTT4=
EXTT5=
EXTT6=
EXTT7=
EXTT8=
EXTT9=
EXTT10=
EXTT11=
EXTT12=
EXTT13=
EXTT14=
PLAYORDER=
